<svg viewBox="0 0 204 32" fill="#FFFFFF" height="100%" whidth="100%" xmlns="http://www.w3.org/2000/svg"><path d="M8.095 25.106c-2.75 0-4.786-.65-6.109-1.953C.663 21.85 0 20.027 0 17.689h3.448c0 1.743.391 3.084 1.17 4.016.778.936 1.938 1.4 3.477 1.4 1.294 0 2.336-.313 3.126-.938s1.184-1.492 1.184-2.602c0-.861-.246-1.61-.74-2.246-.491-.637-1.302-1.181-2.433-1.631l-2.833-1.14C4.407 13.75 3 12.846 2.167 11.84 1.335 10.834.92 9.685.92 8.392c0-.841.168-1.605.509-2.294a5.16 5.16 0 0 1 1.432-1.77c.616-.492 1.356-.877 2.217-1.155.862-.278 1.818-.414 2.862-.414 1.045 0 2.031.133 2.895.4.862.266 1.602.645 2.217 1.139a5.161 5.161 0 0 1 1.433 1.785 5.24 5.24 0 0 1 .509 2.309c0 .411-.05.873-.154 1.385l-3.416-.338c.021-.142.036-.28.048-.414.009-.133.014-.272.014-.414 0-1.211-.313-2.15-.938-2.818-.627-.666-1.492-1-2.602-1-1.047 0-1.903.28-2.569.846-.666.565-1 1.308-1 2.232 0 .719.237 1.376.707 1.97.47.596 1.323 1.14 2.555 1.632l2.862 1.14c1.93.76 3.315 1.666 4.156 2.723.84 1.056 1.26 2.282 1.26 3.679 0 1.888-.686 3.377-2.063 4.463-1.376 1.09-3.294 1.631-5.757 1.631l-.003-.003zM17.979 31.695v-20.75h3.386v2.68c.47-.903 1.16-1.643 2.063-2.217a5.506 5.506 0 0 1 3.016-.862c.903 0 1.734.184 2.492.554a6.02 6.02 0 0 1 1.971 1.539 7.523 7.523 0 0 1 1.309 2.309c.316.882.476 1.838.476 2.862s-.16 1.986-.476 2.877c-.32.894-.755 1.666-1.309 2.323a5.96 5.96 0 0 1-1.97 1.54c-.762.37-1.59.553-2.493.553a5.505 5.505 0 0 1-3.016-.861 5.783 5.783 0 0 1-2.063-2.217v9.667h-3.386v.003zm7.296-9.11a3.555 3.555 0 0 0 2.832-1.357c.35-.432.622-.938.817-1.524a5.95 5.95 0 0 0 .293-1.894c0-.678-.097-1.303-.293-1.877a4.871 4.871 0 0 0-.817-1.51 3.555 3.555 0 0 0-2.833-1.356 3.87 3.87 0 0 0-1.645.356 3.71 3.71 0 0 0-1.294 1 4.936 4.936 0 0 0-.846 1.51 5.572 5.572 0 0 0-.308 1.877c0 .675.104 1.308.308 1.894.204.586.488 1.092.846 1.524.359.433.79.764 1.294 1.001.503.237 1.05.355 1.646.355zM41.986 14.61c.063-.45.027-.778-.106-.986-.133-.204-.344-.308-.63-.308-.33 0-.673.14-1.03.415-.359.278-.687.698-.986 1.26-.3.566-.545 1.28-.74 2.14-.196.862-.293 1.869-.293 3.017v4.555h-3.386V10.945H38.2v3.262c.37-1.048.888-1.918 1.554-2.616.666-.699 1.533-1.048 2.601-1.048.637 0 1.17.127 1.602.385a2.72 2.72 0 0 1 1 1.015c.237.42.39.894.462 1.415.07.524.065 1.05-.015 1.586l-3.416-.337-.003.003zM48.729 9.101c-.616 0-1.107-.183-1.477-.553-.37-.37-.554-.853-.554-1.447 0-.595.184-1.078.554-1.448.37-.37.861-.553 1.477-.553.615 0 1.107.183 1.477.553.37.37.553.853.553 1.448 0 .594-.183 1.077-.553 1.447-.37.37-.862.553-1.477.553zm-1.693 15.605v-13.76h3.386v13.76h-3.386zM56.58 24.706h-3.387v-13.76h3.387v4.185c1.027-3.058 2.79-4.588 5.295-4.588 1.456 0 2.575.503 3.356 1.51.779 1.006 1.17 2.441 1.17 4.31v8.34h-3.387v-8.34c0-1.087-.16-1.877-.476-2.372-.32-.491-.838-.74-1.554-.74-1.397 0-2.478.826-3.247 2.478-.77 1.651-1.154 3.966-1.154 6.94V24.7l-.003.006zM75.418 21.412c-.782 0-1.397.03-1.847.092-.453.062-.796.14-1.03.231-.237.092-.385.195-.447.308a.672.672 0 0 0-.092.323c0 .266.201.467.6.6.4.134 1.144.202 2.233.202h1.231c2.318 0 4.088.337 5.31 1.015 1.22.678 1.832 1.63 1.832 2.862 0 1.519-.74 2.723-2.217 3.617-1.477.894-3.57 1.338-6.28 1.338-2.155 0-3.863-.302-5.127-.909-1.261-.606-1.895-1.432-1.895-2.477 0-.82.344-1.54 1.03-2.155.687-.616 1.637-1.069 2.848-1.356-.944-.124-1.643-.349-2.093-.677-.453-.329-.678-.72-.678-1.17 0-.574.252-1.083.755-1.524.503-.441 1.288-.796 2.356-1.063-.985-.47-1.76-1.113-2.323-1.924-.566-.81-.847-1.74-.847-2.785 0-.778.163-1.503.492-2.17a5.11 5.11 0 0 1 1.385-1.722c.595-.483 1.302-.855 2.125-1.125a8.63 8.63 0 0 1 2.679-.4c1.119 0 2.004.308 2.554.308 1.17 0 1.756-.719 1.756-2.154l3.448.461c0 .329-.092.643-.278.939a2.67 2.67 0 0 1-.755.784c-.32.225-.693.414-1.125.568a5.484 5.484 0 0 1-1.385.293c.82.492 1.441 1.104 1.862 1.832.42.729.63 1.525.63 2.386 0 .782-.166 1.504-.491 2.17a5.08 5.08 0 0 1-1.386 1.723c-.595.482-1.302.86-2.125 1.14-.82.277-1.723.414-2.708.414l.003.005zm-.338 8.712c1.477 0 2.626-.226 3.449-.678.82-.453 1.231-1.036 1.231-1.756 0-.615-.314-1.062-.938-1.338-.628-.278-1.525-.414-2.694-.414h-1.201c-1.211 0-2.147.196-2.8.586-.658.39-.986.903-.986 1.54 0 .636.334 1.163 1 1.524.666.358 1.646.538 2.94.538v-.003zm.37-10.529c1.107 0 1.945-.35 2.51-1.048.566-.698.847-1.56.847-2.587 0-1.027-.281-1.882-.847-2.569-.565-.687-1.4-1.03-2.51-1.03-1.11 0-1.95.343-2.524 1.03-.575.687-.862 1.545-.862 2.57 0 1.023.287 1.888.862 2.586.574.699 1.414 1.048 2.524 1.048zM94.504 24.706h-3.448V3.466h3.448v9.418h9.697V3.466h3.449v21.24h-3.449v-9.85h-9.697v9.85zM113.467 17.966c.021 1.007.128 1.848.323 2.525.195.678.45 1.223.769 1.631.317.412.678.699 1.078.862.399.165.796.245 1.184.245.861 0 1.545-.272 2.048-.817.503-.544.867-1.4 1.092-2.569l3.233.337c-.391 1.519-1.149 2.72-2.28 3.603-1.127.882-2.492 1.323-4.093 1.323-1.007 0-1.924-.175-2.756-.524a6.145 6.145 0 0 1-2.14-1.477c-.595-.637-1.051-1.4-1.37-2.294-.32-.894-.477-1.883-.477-2.972 0-1.169.163-2.21.491-3.125.329-.912.791-1.679 1.386-2.294a5.808 5.808 0 0 1 2.14-1.4c.831-.317 1.749-.477 2.755-.477 1.17 0 2.176.204 3.017.616.84.411 1.533.965 2.077 1.663a6.587 6.587 0 0 1 1.17 2.371c.236.882.322 1.806.26 2.77h-9.913l.006.003zm3.386-5.54c-.923 0-1.666.298-2.231.893-.566.595-.93 1.57-1.093 2.925h6.373c-.103-1.252-.391-2.202-.861-2.848-.474-.645-1.202-.97-2.185-.97h-.003zM137.598 24.706h-3.324v-2.924c-.532 1.09-1.225 1.915-2.078 2.477-.852.566-1.861.847-3.03.847-1.273 0-2.283-.32-3.031-.953-.749-.636-1.125-1.527-1.125-2.679 0-1.663.799-2.945 2.4-3.848 1.602-.902 3.89-1.489 6.864-1.755-.062-1.148-.299-2.01-.707-2.587-.412-.574-1.048-.861-1.909-.861-.862 0-1.554.272-1.954.817-.399.544-.642 1.267-.722 2.17l-3.262-.338c.142-1.356.734-2.448 1.77-3.28 1.036-.832 2.427-1.246 4.171-1.246.861 0 1.657.119 2.385.355.729.237 1.356.59 1.877 1.063a4.927 4.927 0 0 1 1.231 1.77c.296.707.447 1.545.447 2.51v8.465l-.003-.003zm-3.356-7.204c-1.93.104-3.386.462-4.372 1.077-.986.616-1.477 1.448-1.477 2.493 0 .657.169 1.166.509 1.524.338.358.796.539 1.371.539.574 0 1.062-.154 1.524-.462.462-.308.867-.72 1.216-1.231.35-.512.631-1.107.847-1.785a8.625 8.625 0 0 0 .385-2.155h-.003zM143.664 24.706h-3.386V3.466h3.386v21.24zM151.884 25.107c-2.749 0-4.126-1.51-4.126-4.526v-7.85h-2.246v-1.785h2.246V6.33h3.386v4.617h4.34v1.785h-4.34v8.466c0 .719.066 1.237.202 1.554.133.32.373.476.722.476s.595-.16.74-.476c.142-.317.237-.838.278-1.554l3.079.337c-.146 1.17-.587 2.057-1.324 2.664-.737.607-1.722.909-2.954.909h-.003zM161.056 24.706h-3.387V3.466h3.387v11.668c1.027-3.058 2.791-4.588 5.295-4.588 1.456 0 2.575.503 3.356 1.51.779 1.006 1.17 2.441 1.17 4.309v8.341h-3.387v-8.341c0-1.086-.159-1.877-.476-2.371-.32-.491-.838-.74-1.554-.74-1.397 0-2.477.826-3.247 2.478-.77 1.651-1.154 3.966-1.154 6.94v2.031l-.003.003zM190.236 7.284a35.465 35.465 0 0 0-5.245 5.512c3.291-2.276 7.16-3.451 11.017-3.185 2.924.204 5.597 1.276 7.521 2.403 0 0 .74-1.246.314-6.935-.228-3.06-.027-5.079-.027-5.079-2.827.175-9.809 4.09-13.574 7.281l-.006.003z"></path><path d="M195.869 11.561c-4.42-.308-8.871 1.542-12.225 4.884 2.066-1.16 4.789-2.057 8.119-1.797 4.476.355 7.595 2.715 9.413 4.612a12.258 12.258 0 0 0 2.001-5.12c-1.809-1.22-4.275-2.372-7.305-2.582l-.003.003z"></path><path d="M191.61 16.606c-6.005-.477-9.765 3.436-10.771 4.644a12.34 12.34 0 0 0-1.814 2.96c-.057.177-.113.352-.163.52 0 0 4.783 1.037 12.156.223 7.37-.814 8.921-4.153 8.921-4.153-1.539-1.67-4.3-3.872-8.332-4.191l.003-.003zM188.969 5.793a38.392 38.392 0 0 1 9.274-5.79l-7.305.048c-6.793.041-12.266 5.588-12.222 12.384l.044 7.012c1.877-4.17 5.023-9.262 10.206-13.654h.003z"></path></svg>
